<svg xmlns="http://www.w3.org/2000/svg" xmlns:xlink="http://www.w3.org/1999/xlink" width="100" height="100" viewBox="0 0 100 100"><g><g transform="translate(50 50) scale(0.69 0.69) rotate(0) translate(-50 -50)" style="fill:#ffffff"><svg fill="#ffffff" xmlns="http://www.w3.org/2000/svg" xmlns:xlink="http://www.w3.org/1999/xlink" viewBox="0 0 100 100" version="1.1" x="0px" y="0px"><title>Gear 11.4</title><desc>Created with Sketch.</desc><g stroke="none" stroke-width="1" fill="none" fill-rule="evenodd"><g fill="#ffffff"><path d="M46.8115769,70.5243326 C46.3480478,71.8759277 44.8608827,72.610763 43.5153248,72.173888 L42.2126581,71.7509388 C40.8557174,71.3103679 40.0988314,69.8358083 40.5151662,68.4800172 L40.6684862,67.9807316 C41.0182609,66.841693 40.5247381,65.3529126 39.5583944,64.6497883 L39.2948923,64.4580607 C38.3320309,63.7574701 36.7611103,63.7444032 35.786342,64.4287353 L35.3590234,64.7287325 C34.1899965,65.5494429 32.5547942,65.2698939 31.7224242,64.1259569 L30.9165871,63.0184841 C30.0771757,61.8648698 30.3308294,60.2275658 31.4642457,59.3756634 L31.8816392,59.0619406 C32.8338544,58.3462333 33.3089143,56.8517451 32.9397439,55.7147567 L32.8390787,55.4047233 C32.4712386,54.271832 31.207542,53.3377795 30.0167764,53.3184626 L29.4947691,53.3099945 C28.0666995,53.2868279 26.9090203,52.0995249 26.9090203,50.6848097 L26.9090203,49.3151903 C26.9090203,47.8885073 28.0772781,46.7130004 29.4947691,46.6900055 L30.0167764,46.6815374 C31.2076508,46.6622187 32.4699083,45.7322652 32.8390787,44.5952767 L32.9397439,44.2852433 C33.307584,43.152352 32.8337674,41.6537013 31.8816392,40.9380594 L31.4642457,40.6243366 C30.3223708,39.7660765 30.0842171,38.125453 30.9165871,36.9815159 L31.7224242,35.8740431 C32.5618356,34.7204289 34.1986563,34.4566366 35.3590234,35.2712675 L35.786342,35.5712647 C36.7611994,36.2556593 38.3285486,36.2450636 39.2948923,35.5419393 L39.5583944,35.3502117 C40.5212558,34.6496211 41.0182289,33.1582029 40.6684862,32.0192684 L40.5151662,31.5199828 C40.0957244,30.1540735 40.8671002,28.6859363 42.2126581,28.2490612 L43.5153248,27.826112 C44.8722655,27.3855412 46.3514815,28.1340844 46.8115769,29.4756674 L46.9810123,29.9697208 C47.3675515,31.0968227 48.64194,32.0105194 49.837058,32.0105194 L50.162942,32.0105194 C51.3537533,32.0105194 52.6324839,31.0967197 53.0189877,29.9697208 L53.1884231,29.4756674 C53.6519522,28.1240723 55.1391173,27.389237 56.4846752,27.826112 L57.7873419,28.2490612 C59.1442826,28.6896321 59.9011686,30.1641917 59.4848338,31.5199828 L59.3315138,32.0192684 C58.9817391,33.158307 59.4752619,34.6470874 60.4416056,35.3502117 L60.7051077,35.5419393 C61.6679691,36.2425299 63.2388897,36.2555968 64.213658,35.5712647 L64.6409766,35.2712675 C65.8100035,34.4505571 67.4452058,34.7301061 68.2775758,35.8740431 L69.0834129,36.9815159 C69.9228243,38.1351302 69.6691706,39.7724342 68.5357543,40.6243366 L68.1183608,40.9380594 C67.1661456,41.6537667 66.6910857,43.1482549 67.0602561,44.2852433 L67.1609213,44.5952767 C67.5287614,45.728168 68.792458,46.6622205 69.9832236,46.6815374 L70.5052309,46.6900055 C71.9333005,46.7131721 73.0909797,47.9004751 73.0909797,49.3151903 L73.0909797,50.6848097 C73.0909797,52.1114927 71.9227219,53.2869996 70.5052309,53.3099945 L69.9832236,53.3184626 C68.7923492,53.3377813 67.5300917,54.2677348 67.1609213,55.4047233 L67.0602561,55.7147567 C66.692416,56.847648 67.1662326,58.3462987 68.1183608,59.0619406 L68.5357543,59.3756634 C69.6776292,60.2339235 69.9157829,61.874547 69.0834129,63.0184841 L68.2775758,64.1259569 C67.4381644,65.2795711 65.8013437,65.5433634 64.6409766,64.7287325 L64.213658,64.4287353 C63.2388006,63.7443407 61.6714514,63.7549364 60.7051077,64.4580607 L60.4416056,64.6497883 C59.4787442,65.3503789 58.9817711,66.8417971 59.3315138,67.9807316 L59.4848338,68.4800172 C59.9042756,69.8459265 59.1328998,71.3140637 57.7873419,71.7509388 L56.4846752,72.173888 C55.1277345,72.6144588 53.6485185,71.8659156 53.1884231,70.5243326 L53.0189877,70.0302792 C52.6324485,68.9031773 51.35806,67.9894806 50.162942,67.9894806 L49.837058,67.9894806 C48.6462467,67.9894806 47.3675161,68.9032803 46.9810123,70.0302792 L46.8115769,70.5243326 Z M50,92 C26.8040405,92 8,73.1959595 8,50 C8,26.8040405 26.8040405,8 50,8 C73.1959595,8 92,26.8040405 92,50 C92,73.1959595 73.1959595,92 50,92 Z M50,88 C70.9868205,88 88,70.9868205 88,50 C88,29.0131795 70.9868205,12 50,12 C29.0131795,12 12,29.0131795 12,50 C12,70.9868205 29.0131795,88 50,88 Z M50,61.2272727 C43.7993485,61.2272727 38.7727273,56.2006515 38.7727273,50 C38.7727273,43.7993485 43.7993485,38.7727273 50,38.7727273 C56.2006515,38.7727273 61.2272727,43.7993485 61.2272727,50 C61.2272727,56.2006515 56.2006515,61.2272727 50,61.2272727 Z"></path></g></g></svg></g></g></svg>