<svg xmlns="http://www.w3.org/2000/svg" xmlns:xlink="http://www.w3.org/1999/xlink" width="100" height="100" viewBox="0 0 100 100"><g><g transform="translate(50 50) scale(0.69 0.69) rotate(0) translate(-50 -50)" style="fill:#3e3e3e"><svg fill="#3e3e3e" xmlns="http://www.w3.org/2000/svg" xmlns:xlink="http://www.w3.org/1999/xlink" version="1.1" x="0px" y="0px" viewBox="0 0 100 100" enable-background="new 0 0 100 100" xml:space="preserve"><path d="M33.984,23.912l6.829,6.829c0.658,0.658,0.658,1.734,0,2.392L30.466,43.48h42.094c0.93,0,1.692,0.761,1.692,1.692v9.657  c0,0.93-0.761,1.692-1.692,1.692H30.466l10.347,10.347c0.658,0.658,0.658,1.734,0,2.392l-6.829,6.829  c-0.658,0.658-1.734,0.658-2.392,0L6.787,51.283C6.436,50.932,6.278,50.462,6.302,50c-0.024-0.462,0.134-0.932,0.485-1.283  l24.805-24.805C32.25,23.254,33.326,23.254,33.984,23.912z M92.206,5.712H53.148c0,0-0.528-0.003-0.961,0.459  c-0.336,0.358-0.336,0.867-0.336,0.867v8.989c0,0,0.001,0.38,0.367,0.786c0.379,0.42,0.866,0.42,0.866,0.42H82.18v65.534H53.148  c0,0-0.528-0.003-0.961,0.459c-0.336,0.358-0.336,0.867-0.336,0.867v8.989c0,0,0.001,0.38,0.367,0.786  c0.379,0.42,0.866,0.42,0.866,0.42h39.148c0.807,0,1.468-0.661,1.468-1.468V7.207C93.701,6.385,93.028,5.712,92.206,5.712z"></path></svg></g></g></svg>