<svg xmlns="http://www.w3.org/2000/svg" xmlns:xlink="http://www.w3.org/1999/xlink" width="100" height="100" viewBox="0 0 100 100"><g><g transform="translate(50 50) scale(0.69 0.69) rotate(0) translate(-50 -50)" style="fill:#3e3e3e"><svg fill="#3e3e3e" xmlns="http://www.w3.org/2000/svg" xmlns:xlink="http://www.w3.org/1999/xlink" version="1.1" x="0px" y="0px" viewBox="0 0 100 100" enable-background="new 0 0 100 100" xml:space="preserve"><g><path d="M78,9v82H22V9H78 M82,5H18v90h64V5L82,5z"></path></g><rect x="31" y="17" width="38" height="5"></rect><g><rect x="31" y="32" width="38" height="3"></rect></g><g><rect x="31" y="41" width="38" height="3"></rect></g><g><rect x="31" y="50" width="38" height="3"></rect></g><g><rect x="31" y="59" width="23" height="3"></rect></g><path d="M28,71v14h20V71H28z M42.264,79.816l-1.713,1.713l-2.284-2.285l-2.285,2.285l-1.714-1.713l2.285-2.285l-2.285-2.284  l1.713-1.714l2.284,2.284l2.285-2.284l1.713,1.714l-2.285,2.284L42.264,79.816z"></path><path d="M52,71v14h20V71H52z M63.726,79.745l-1.655,1.654l-4.137-4.137l1.654-1.654l2.482,2.482l3.861-3.861l1.654,1.654  L63.726,79.745z"></path></svg></g></g></svg>