<svg xmlns="http://www.w3.org/2000/svg" xmlns:xlink="http://www.w3.org/1999/xlink" width="100" height="100" viewBox="0 0 100 100"><g><g transform="translate(50 50) scale(0.69 0.69) rotate(0) translate(-50 -50)" style="fill:#3e3e3e"><svg fill="#3e3e3e" xmlns:x="http://ns.adobe.com/Extensibility/1.0/" xmlns:i="http://ns.adobe.com/AdobeIllustrator/10.0/" xmlns:graph="http://ns.adobe.com/Graphs/1.0/" xmlns="http://www.w3.org/2000/svg" xmlns:xlink="http://www.w3.org/1999/xlink" version="1.1" x="0px" y="0px" viewBox="0 0 100 100" enable-background="new 0 0 100 100" xml:space="preserve"><g><g i:extraneous="self"><path d="M54.3,67.2c0,0-2.4-2.8-5.7-0.6c0,0-1.5,1.4-4.8,3.8s-6.7-3.3-6.7-3.3L31,57.3c0,0-1.6-2.3-3.4-5.1l0,0    c-1.1-1.7-2.3-3.5-3.2-5.1c-2.3-4.6-1-6.2-1-6.2c0.7-1.7,5.2-3,7.3-4.4c3.3-2.2,1.7-5.5,1.7-5.5l-6.6-13.1    c-0.8-1.7-2.2-2.5-4.5-1.9C19,16.5,15,19.3,15,19.3c-0.7,0.4-1.3,0.9-1.9,1.4c-5,3.5-8,8.3-5.7,19.1C9.6,51,19,65.3,19,65.3    s9.4,14.2,18.9,20.8c3.6,2.5,6.7,3.9,9.3,4.4c0.9,0.2,1.8,0.3,2.7,0.3c3.1,0,5.8-1.2,8.3-2.9c0,0,4.1-2.6,5.5-4.5s1.3-3.5,0-4.9    L54.3,67.2z M69.1,35.2h-0.2c-0.4,0-0.8-0.1-1.2-0.4l-11.3-7.9v14.6h25.1V27l-11.2,7.9C69.9,35.1,69.5,35.2,69.1,35.2z M76.4,25.6    H61.6l7.4,5.1L76.4,25.6z M88.5,19c-6.7-9-19-12.2-29.3-7.7c-13.6,6-18.7,22.2-11.5,34.8c5.6,9.7,16.8,14.1,27.1,11.5    c0.7-0.2,1.4-0.1,2,0.2l5.7,2.8c1.2,0.6,2.6-0.2,2.7-1.6l0.4-6.4c0-0.7,0.4-1.3,0.8-1.8C94.6,42.5,96,29.1,88.5,19z M85.7,43.7    c0,1.1-0.9,2.1-2.1,2.1H54.4c-1.1,0-2.1-0.9-2.1-2.1V23.5c0-1.1,0.9-2.1,2.1-2.1h29.2c1.1,0,2.1,0.9,2.1,2.1V43.7z"></path></g></g></svg></g></g></svg>