<svg xmlns="http://www.w3.org/2000/svg" xmlns:xlink="http://www.w3.org/1999/xlink" width="100" height="100" viewBox="0 0 100 100"><g><g transform="translate(50 50) scale(0.69 0.69) rotate(0) translate(-50 -50)" style="fill:#3e3e3e"><svg fill="#3e3e3e" xmlns="http://www.w3.org/2000/svg" viewBox="0 0 48 48" x="0px" y="0px"><defs><style>.cls-1{fill:none;}</style></defs><title>Info</title><g data-name="Bouding Box"><rect class="cls-1" width="48" height="48"></rect></g><g><path d="M24,4A20,20,0,1,0,44,24,20,20,0,0,0,24,4Zm0,37A17,17,0,1,1,41,24,17,17,0,0,1,24,41Z"></path><path d="M24,23a2,2,0,0,0-2,2v7a2,2,0,0,0,4,0V25A2,2,0,0,0,24,23Z"></path><path d="M24,14a3,3,0,1,0,3,3A3,3,0,0,0,24,14Z"></path></g></svg></g></g></svg>