<svg xmlns="http://www.w3.org/2000/svg" xmlns:xlink="http://www.w3.org/1999/xlink" width="100" height="100" viewBox="0 0 100 100"><g><g transform="translate(50 50) scale(0.69 0.69) rotate(0) translate(-50 -50)" style="fill:#03adce"><svg fill="#03adce" xmlns:dc="http://purl.org/dc/elements/1.1/" xmlns:cc="http://creativecommons.org/ns#" xmlns:rdf="http://www.w3.org/1999/02/22-rdf-syntax-ns#" xmlns:svg="http://www.w3.org/2000/svg" xmlns="http://www.w3.org/2000/svg" xmlns:sodipodi="http://sodipodi.sourceforge.net/DTD/sodipodi-0.dtd" xmlns:inkscape="http://www.inkscape.org/namespaces/inkscape" version="1.1" x="0px" y="0px" viewBox="0 0 100 100"><g transform="translate(0,-952.36218)"><path style="text-indent:0;text-transform:none;direction:ltr;block-progression:tb;baseline-shift:baseline;color:#000000;enable-background:accumulate;" d="m 82.224414,958.34668 c -6.8961,0 -12.6123,6.04204 -11.625,13.78125 0.01,0.042 0.02,0.0837 0.031,0.125 1.1954,6.23216 4.2217,10.70216 7.1875,14.24996 l -50.9685,0.031 c -0.3934,1.9e-4 -0.7978,0.1246 -1.125,0.3438 -0.3266,0.2192 -0.5692,0.5422 -0.7187,0.9062 -0.1495,0.3641 -0.172,0.7707 -0.094,1.1563 0.078,0.38559 0.2828,0.7545 0.5624,1.0312 l 52.1876,52.40631 -51.375,0 c 5.7769,-6.8548 9.7824,-13.1002 11.375,-21.4062 0.012,-0.041 0.022,-0.083 0.031,-0.125 1.3418,-10.5169 -6.2488,-18.4958 -15.4688,-18.6563 -0.052,-0.013 -0.1037,-0.023 -0.1562,-0.031 l -0.031,0 c -0.031,-7e-4 -0.062,-7e-4 -0.094,0 -0.1256,-0 -0.2514,0.01 -0.375,0.031 -9.203099,0.1811 -16.7465993,8.1534 -15.4061993,18.6563 l 0,0.125 c 1.8163,9.4746 6.8157003,16.2652 13.9686993,24.3437 0.7318,0.7318 1.3834,1.0625 2.0937,1.0625 l 60.2813,0 c 0.393504,-10e-5 0.798104,-0.093 1.125004,-0.3125 0.3268,-0.2191 0.6005,-0.5422 0.75,-0.9062 0.1496,-0.364 0.1721,-0.7706 0.094,-1.1563 -0.078,-0.3856 -0.2828,-0.7544 -0.5624,-1.0312 l -52.187604,-52.43761 50.25,-0.031 c 0.706,0 1.389404,-0.2955 1.750004,-0.6562 5.1425,-5.7864 8.808,-10.708 10.125,-17.59376 0.012,-0.0413 0.022,-0.083 0.031,-0.125 0.9993,-7.74191 -4.7598,-13.78125 -11.656304,-13.78125 z m 0.125,6.71875 c 2.724404,0 4.968804,2.26437 4.968804,5 0,2.73224 -2.2363,4.96876 -4.968804,4.96876 -2.7355,0 -4.9687,-2.24464 -4.9687,-4.96876 0,-2.72756 2.2412,-5 4.9687,-5 z m -60.2812,44.06247 c 4.8715,0 8.875,3.9964 8.875,8.875 0,4.8716 -4.0035,8.875 -8.875,8.875 -4.8715,0 -8.843799,-4.0034 -8.843799,-8.875 0,-4.8786 3.972299,-8.875 8.843799,-8.875 z" fill="#03adce" fill-opacity="1" fill-rule="evenodd" stroke="none" marker="none" visibility="visible" display="inline" overflow="visible"></path></g></svg></g></g></svg>