<svg xmlns="http://www.w3.org/2000/svg" xmlns:xlink="http://www.w3.org/1999/xlink" width="100" height="100" viewBox="0 0 100 100"><g><g transform="translate(50 50) scale(0.69 0.69) rotate(0) translate(-50 -50)" style="fill:#03adce"><svg fill="#03adce" xmlns:dc="http://purl.org/dc/elements/1.1/" xmlns:cc="http://creativecommons.org/ns#" xmlns:rdf="http://www.w3.org/1999/02/22-rdf-syntax-ns#" xmlns:svg="http://www.w3.org/2000/svg" xmlns="http://www.w3.org/2000/svg" xmlns:sodipodi="http://sodipodi.sourceforge.net/DTD/sodipodi-0.dtd" xmlns:inkscape="http://www.inkscape.org/namespaces/inkscape" version="1.1" x="0px" y="0px" viewBox="0 0 100 100"><g transform="translate(0,-952.36218)"><path style="text-indent:0;text-transform:none;direction:ltr;block-progression:tb;baseline-shift:baseline;color:#000000;enable-background:accumulate;" d="m 50.000002,958.36216 c 24.269401,0 44,19.72042 44,44.00004 0,24.27 -19.730029,44 -44,44 -24.279599,0 -44.000004,-19.7306 -44.000004,-44 0,-24.27904 19.720983,-44.00004 44.000005,-44.00004 z m 0,3.99969 c -22.117969,0 -40.000624,17.88235 -40.000624,40.00035 0,22.1074 17.883223,40.0006 40.000625,40.0006 22.10683,0 40.000319,-17.8937 40.000319,-40.0006 0,-22.11742 -17.892909,-40.00035 -40.000319,-40.00035 z" fill="#03adce" fill-opacity="1" fill-rule="evenodd" stroke="none" marker="none" visibility="visible" display="inline" overflow="visible"></path><path style="text-indent:0;text-transform:none;direction:ltr;block-progression:tb;baseline-shift:baseline;color:#000000;enable-background:accumulate;" d="m 53.172941,980.2658 a 2.000005,2.000005 0 0 1 1.39313,3.43403 l -18.66243,18.66247 18.66243,18.6624 a 2.000005,2.000005 0 1 1 -2.82829,2.8283 l -20.076579,-20.0766 a 2.000005,2.000005 0 0 1 0,-2.8283 l 20.07658,-20.07656 a 2.000005,2.000005 0 0 1 1.43516,-0.60574 z" fill="#03adce" fill-opacity="1" fill-rule="evenodd" stroke="none" marker="none" visibility="visible" display="inline" overflow="visible"></path></g></svg></g></g></svg>